#N canvas 118 240 1706 825 10;
#X obj 921 229 bng 15 250 50 0 empty empty empty 17 7 0 10 -262144
-1 -1;
#X obj 971 209 line~;
#X obj 971 241 osc~;
#X obj 971 285 delwrite~ buff1 10000;
#X obj 1128 363 sig~;
#X floatatom 1128 339 5 0 0 0 - - -, f 5;
#X obj 1129 393 vd~ buff1;
#X floatatom 1149 423 5 0 0 0 - - -, f 5;
#X obj 1270 362 sig~;
#X floatatom 1270 338 5 0 0 0 - - -, f 5;
#X obj 1271 392 vd~ buff1;
#X floatatom 1291 422 5 0 0 0 - - -, f 5;
#X obj 1411 363 sig~;
#X floatatom 1411 339 5 0 0 0 - - -, f 5;
#X obj 1412 393 vd~ buff1;
#X floatatom 1432 423 5 0 0 0 - - -, f 5;
#X obj 1553 362 sig~;
#X floatatom 1553 338 5 0 0 0 - - -, f 5;
#X obj 1554 392 vd~ buff1;
#X floatatom 1574 422 5 0 0 0 - - -, f 5;
#X obj 1187 603 hip~ 5;
#X obj 1188 636 dac~;
#X text 1023 241 instead of microphone input;
#X text 1126 318 loop duration;
#X text 1267 315 loop duration;
#X text 1409 315 loop duration;
#X text 1553 314 loop duration;
#X obj 969 91 r x;
#X obj 968 121 * 20;
#X msg 971 179 \$1 200;
#X obj 970 150 + 100;
#X msg 1272 239 121;
#X msg 1306 240 245;
#X msg 1343 240 456;
#X msg 1377 241 786;
#X obj 1188 575 *~ 0.5;
#X obj 1278 195 loadbang;
#X obj 1411 445 *~ 0.2;
#X obj 1553 444 *~ 0.1;
#X obj 1270 444 *~ 0.2;
#X obj 1128 445 *~ 0.2;
#X obj 544 73 route list;
#X obj 543 42 receive fromNetwork;
#X obj 561 264 vsl 30 256 0 100 0 0 empty empty empty 0 -9 0 10 -262144
-1 -1 0 1;
#X obj 880 266 vsl 30 256 0 200 0 0 empty empty empty 0 -9 0 10 -262144
-1 -1 0 1;
#X obj 544 108 route /accelx /accely /accelz /temp /pressure /altitude
/humidity;
#X floatatom 685 156 5 0 0 0 - - -, f 5;
#X floatatom 791 158 5 0 0 0 - - -, f 5;
#X floatatom 845 150 5 0 0 0 - - -, f 5;
#X obj 610 265 hsl 256 30 0 100 0 0 empty empty empty -2 -8 0 10 -262144
-1 -1 0 1;
#X obj 514 158 s x;
#X obj 588 154 s y;
#X obj 636 151 s z;
#X obj 562 239 r y;
#X obj 607 237 r x;
#X obj 882 239 r z;
#X obj 764 200 s alt;
#X obj 824 200 s hum;
#X obj 662 198 s temp, f 7;
#X floatatom 732 154 5 0 0 0 - - -, f 5;
#X text 541 19 values received from the ESP32;
#X text 52 698 Enrique Tomas flying-interfaces Workshop https://github.com/ultranoise/flying-interfaces/blob/master/README.md
;
#X obj 1247 573 r vol_master;
#X text 1062 67 An experiment in delay buffers controlled by one parameter
;
#X msg 415 35 \; pd dsp 1;
#X text 440 73 ON;
#X obj 414 6 loadbang;
#X obj 49 81 receive fromGUI;
#X obj 50 112 list trim;
#X obj 54 212 r volume;
#X obj 47 164 s volume;
#X obj 53 251 sel 1 0;
#X msg 82 282 0;
#X msg 48 282 0.9;
#X text 39 56 Messages received from the phone;
#X obj 48 328 s vol_master;
#X obj 178 592 send toGUI, f 33;
#X obj 99 426 r x;
#X obj 132 425 r y;
#X obj 173 425 r z;
#N canvas 0 94 614 457 speedControl 0;
#X obj 43 239 inlet;
#X obj 28 270 f;
#X obj 28 293 outlet;
#X obj 27 127 loadbang;
#X obj 115 241 inlet;
#X obj 100 272 f;
#X obj 100 295 outlet;
#X obj 196 243 inlet;
#X obj 181 274 f;
#X obj 181 297 outlet;
#X obj 27 160 metro 100;
#X text 173 22 Updating your phone display can take a bit of time.
As we expect values from the ESP32 every 3 or 4 ms \, we impose here
a slower rate for the values sent to the display. Audio synthesis is
not affected by this subpatch. It runs at full ESP32 rate.;
#X text 134 206 add one of this for each inout you want to control
;
#X obj 247 243 inlet;
#X obj 232 274 f;
#X obj 232 297 outlet;
#X obj 319 245 inlet;
#X obj 304 276 f;
#X obj 304 299 outlet;
#X obj 400 247 inlet;
#X obj 385 278 f;
#X obj 385 301 outlet;
#X connect 0 0 1 1;
#X connect 1 0 2 0;
#X connect 3 0 10 0;
#X connect 4 0 5 1;
#X connect 5 0 6 0;
#X connect 7 0 8 1;
#X connect 8 0 9 0;
#X connect 10 0 1 0;
#X connect 10 0 5 0;
#X connect 10 0 8 0;
#X connect 10 0 14 0;
#X connect 10 0 17 0;
#X connect 10 0 20 0;
#X connect 13 0 14 1;
#X connect 14 0 15 0;
#X connect 16 0 17 1;
#X connect 17 0 18 0;
#X connect 19 0 20 1;
#X connect 20 0 21 0;
#X restore 140 502 pd speedControl;
#X text 249 492 control the sending rate;
#X msg 149 554 list /z \$1;
#X msg 29 560 list /xy \$1 \$2;
#X obj 28 533 pack f f;
#X msg 242 552 list /alt \$1;
#X msg 332 553 list /hum \$1;
#X msg 418 554 list /temp \$1;
#X obj 230 426 r alt;
#X obj 267 438 r hum;
#X obj 308 443 r temp;
#X obj 97 461 / 100;
#X obj 136 462 / 100;
#X obj 178 461 / 100;
#X text 45 366 Sending values to the phone app;
#X obj 49 140 route /on /presets;
#X obj 129 169 unpack f f f;
#X obj 246 202 s p_value;
#X obj 128 202 s p_column;
#X obj 195 202 s p_row;
#X text 190 119 For example \, /on controls the main volume;
#X text 195 138 we also receive the infomation of presets;
#X connect 1 0 2 0;
#X connect 2 0 3 0;
#X connect 4 0 6 0;
#X connect 5 0 4 0;
#X connect 6 0 40 0;
#X connect 7 0 40 1;
#X connect 8 0 10 0;
#X connect 9 0 8 0;
#X connect 10 0 39 0;
#X connect 11 0 39 1;
#X connect 12 0 14 0;
#X connect 13 0 12 0;
#X connect 14 0 37 0;
#X connect 15 0 37 1;
#X connect 16 0 18 0;
#X connect 17 0 16 0;
#X connect 18 0 38 0;
#X connect 19 0 38 1;
#X connect 20 0 21 0;
#X connect 20 0 21 1;
#X connect 27 0 28 0;
#X connect 28 0 30 0;
#X connect 29 0 1 0;
#X connect 30 0 29 0;
#X connect 31 0 5 0;
#X connect 32 0 9 0;
#X connect 33 0 13 0;
#X connect 34 0 17 0;
#X connect 35 0 20 0;
#X connect 36 0 31 0;
#X connect 36 0 32 0;
#X connect 36 0 33 0;
#X connect 36 0 34 0;
#X connect 37 0 3 0;
#X connect 37 0 35 0;
#X connect 38 0 3 0;
#X connect 38 0 35 0;
#X connect 39 0 3 0;
#X connect 39 0 35 0;
#X connect 40 0 3 0;
#X connect 40 0 35 0;
#X connect 41 0 45 0;
#X connect 42 0 41 0;
#X connect 45 0 50 0;
#X connect 45 1 51 0;
#X connect 45 2 52 0;
#X connect 45 3 46 0;
#X connect 45 3 58 0;
#X connect 45 4 59 0;
#X connect 45 5 47 0;
#X connect 45 5 56 0;
#X connect 45 6 48 0;
#X connect 45 6 57 0;
#X connect 53 0 43 0;
#X connect 54 0 49 0;
#X connect 55 0 44 0;
#X connect 62 0 35 1;
#X connect 66 0 64 0;
#X connect 67 0 68 0;
#X connect 68 0 95 0;
#X connect 69 0 71 0;
#X connect 71 0 73 0;
#X connect 71 1 72 0;
#X connect 72 0 75 0;
#X connect 73 0 75 0;
#X connect 77 0 91 0;
#X connect 78 0 92 0;
#X connect 79 0 93 0;
#X connect 80 0 84 0;
#X connect 80 1 84 1;
#X connect 80 2 82 0;
#X connect 80 3 85 0;
#X connect 80 4 86 0;
#X connect 80 5 87 0;
#X connect 82 0 76 0;
#X connect 83 0 76 0;
#X connect 84 0 83 0;
#X connect 85 0 76 0;
#X connect 86 0 76 0;
#X connect 87 0 76 0;
#X connect 88 0 80 3;
#X connect 89 0 80 4;
#X connect 90 0 80 5;
#X connect 91 0 80 0;
#X connect 92 0 80 1;
#X connect 93 0 80 2;
#X connect 95 0 70 0;
#X connect 95 1 96 0;
#X connect 96 0 98 0;
#X connect 96 1 99 0;
#X connect 96 2 97 0;
