#N canvas 214 255 1706 825 10;
#X obj 1420 175 loadbang;
#X text 1449 199 v-- re-read the original sample;
#X obj 1423 244 soundfiler;
#X obj 1056 756 dac~;
#X obj 1059 679 hip~ 5;
#X floatatom 1023 307 0 0 0 0 - - -;
#X obj 1023 332 * 441;
#X obj 1023 454 +~ 1;
#X text 1074 306 <-- chunk size (100ths of a second);
#X obj 1059 647 *~;
#X obj 1119 457 line~;
#X obj 1119 407 * 441;
#X floatatom 1119 382 0 0 0 0 - - -;
#X obj 1119 432 pack 0 100;
#X text 1165 384 <-- read point in 100ths of a second;
#X obj 1057 486 +~;
#X obj 1119 482 samphold~;
#X obj 1023 382 samphold~;
#X obj 1023 357 sig~;
#X obj 1023 429 *~;
#X obj 1098 548 r~ phase;
#X obj 1419 577 s~ phase;
#X obj 1081 357 r~ phase;
#X obj 1039 404 r~ phase;
#X obj 1177 458 r~ phase;
#X obj 1164 352 s chunk-size;
#X floatatom 1419 423 0 0 0 0 - - -;
#X text 1457 424 <-- transposition (10ths of a halftone);
#X obj 1164 327 * 0.01;
#X text 1277 340 chunk size;
#X text 1277 362 in seconds;
#X obj 1430 478 r chunk-size;
#X obj 1430 503 t b f;
#X obj 1419 527 /;
#X text 1489 504 divide speed change by chunk;
#X text 1487 525 size to get loop frequency;
#X obj 1098 572 -~ 0.5;
#X obj 1098 596 *~ 0.5;
#X obj 1098 619 cos~;
#X obj 1419 448 expr pow(2 \, $f1/120);
#X text 1608 448 speed change;
#X obj 1419 551 phasor~;
#X obj 1423 270 s nr_samples;
#X obj 1020 251 loadbang;
#X msg 1021 278 300;
#X obj 1417 346 r y;
#X obj 1417 376 * 3;
#X obj 1419 399 - 150;
#X obj 544 73 route list;
#X obj 543 42 receive fromNetwork;
#X obj 561 264 vsl 30 256 0 100 0 0 empty empty empty 0 -9 0 10 -262144
-1 -1 0 1;
#X obj 880 266 vsl 30 256 0 200 0 0 empty empty empty 0 -9 0 10 -262144
-1 -1 0 1;
#X obj 544 108 route /accelx /accely /accelz /temp /pressure /altitude
/humidity;
#X floatatom 685 156 5 0 0 0 - - -, f 5;
#X floatatom 791 158 5 0 0 0 - - -, f 5;
#X floatatom 845 150 5 0 0 0 - - -, f 5;
#X obj 610 265 hsl 256 30 0 100 0 0 empty empty empty -2 -8 0 10 -262144
-1 -1 0 1;
#X obj 514 158 s x;
#X obj 588 154 s y;
#X obj 636 151 s z;
#X obj 562 239 r y;
#X obj 607 237 r x;
#X obj 882 239 r z;
#X obj 764 200 s alt;
#X obj 824 200 s hum;
#X obj 662 198 s temp, f 7;
#X floatatom 732 154 5 0 0 0 - - -, f 5;
#X text 541 19 values received from the ESP32;
#X text 52 698 Enrique Tomas flying-interfaces Workshop https://github.com/ultranoise/flying-interfaces/blob/master/README.md
;
#X text 1025 150 A sampler with pitch controlled by a flying parameter
;
#X obj 1112 709 r vol_master;
#X obj 1058 710 *~ 0;
#X text 1161 550 <- pitch control;
#X text 1416 321 Parameter controlling pitch;
#N canvas 0 50 450 250 (subpatch) 0;
#X array table22 174215 float 2;
#X coords 0 1 174215 -1 200 140 1;
#X restore 1450 16 graph;
#X msg 1423 222 read -resize loop1_mono.wav table22;
#X obj 1058 521 tabread4~ table22;
#X obj 46 33 receive fromGUI;
#X obj 47 64 list trim;
#X obj 51 164 r volume;
#X obj 44 116 s volume;
#X obj 50 203 sel 1 0;
#X msg 79 234 0;
#X msg 45 234 0.9;
#X text 36 8 Messages received from the phone;
#X obj 45 280 s vol_master;
#X obj 175 544 send toGUI, f 33;
#X obj 96 378 r x;
#X obj 129 377 r y;
#X obj 170 377 r z;
#N canvas 0 94 614 457 speedControl 0;
#X obj 43 239 inlet;
#X obj 28 270 f;
#X obj 28 293 outlet;
#X obj 27 127 loadbang;
#X obj 115 241 inlet;
#X obj 100 272 f;
#X obj 100 295 outlet;
#X obj 196 243 inlet;
#X obj 181 274 f;
#X obj 181 297 outlet;
#X obj 27 160 metro 100;
#X text 173 22 Updating your phone display can take a bit of time.
As we expect values from the ESP32 every 3 or 4 ms \, we impose here
a slower rate for the values sent to the display. Audio synthesis is
not affected by this subpatch. It runs at full ESP32 rate.;
#X text 134 206 add one of this for each inout you want to control
;
#X obj 247 243 inlet;
#X obj 232 274 f;
#X obj 232 297 outlet;
#X obj 319 245 inlet;
#X obj 304 276 f;
#X obj 304 299 outlet;
#X obj 400 247 inlet;
#X obj 385 278 f;
#X obj 385 301 outlet;
#X connect 0 0 1 1;
#X connect 1 0 2 0;
#X connect 3 0 10 0;
#X connect 4 0 5 1;
#X connect 5 0 6 0;
#X connect 7 0 8 1;
#X connect 8 0 9 0;
#X connect 10 0 1 0;
#X connect 10 0 5 0;
#X connect 10 0 8 0;
#X connect 10 0 14 0;
#X connect 10 0 17 0;
#X connect 10 0 20 0;
#X connect 13 0 14 1;
#X connect 14 0 15 0;
#X connect 16 0 17 1;
#X connect 17 0 18 0;
#X connect 19 0 20 1;
#X connect 20 0 21 0;
#X restore 137 454 pd speedControl;
#X text 246 444 control the sending rate;
#X msg 146 506 list /z \$1;
#X msg 26 512 list /xy \$1 \$2;
#X obj 25 485 pack f f;
#X msg 239 504 list /alt \$1;
#X msg 329 505 list /hum \$1;
#X msg 415 506 list /temp \$1;
#X obj 227 378 r alt;
#X obj 264 390 r hum;
#X obj 305 395 r temp;
#X obj 94 413 / 100;
#X obj 133 414 / 100;
#X obj 175 413 / 100;
#X text 42 318 Sending values to the phone app;
#X obj 46 92 route /on /presets;
#X obj 126 121 unpack f f f;
#X obj 243 154 s p_value;
#X obj 125 154 s p_column;
#X obj 192 154 s p_row;
#X text 187 71 For example \, /on controls the main volume;
#X text 192 90 we also receive the infomation of presets;
#X connect 0 0 75 0;
#X connect 2 0 42 0;
#X connect 4 0 71 0;
#X connect 5 0 6 0;
#X connect 5 0 28 0;
#X connect 6 0 18 0;
#X connect 7 0 15 0;
#X connect 9 0 4 0;
#X connect 10 0 16 0;
#X connect 11 0 13 0;
#X connect 12 0 11 0;
#X connect 13 0 10 0;
#X connect 15 0 76 0;
#X connect 16 0 15 1;
#X connect 17 0 19 0;
#X connect 18 0 17 0;
#X connect 19 0 7 0;
#X connect 20 0 36 0;
#X connect 22 0 17 1;
#X connect 23 0 19 1;
#X connect 24 0 16 1;
#X connect 26 0 39 0;
#X connect 28 0 25 0;
#X connect 31 0 32 0;
#X connect 32 0 33 0;
#X connect 32 1 33 1;
#X connect 33 0 41 0;
#X connect 36 0 37 0;
#X connect 37 0 38 0;
#X connect 38 0 9 1;
#X connect 39 0 33 0;
#X connect 41 0 21 0;
#X connect 43 0 44 0;
#X connect 44 0 5 0;
#X connect 45 0 46 0;
#X connect 46 0 47 0;
#X connect 47 0 26 0;
#X connect 48 0 52 0;
#X connect 49 0 48 0;
#X connect 52 0 57 0;
#X connect 52 1 58 0;
#X connect 52 2 59 0;
#X connect 52 3 53 0;
#X connect 52 3 65 0;
#X connect 52 4 66 0;
#X connect 52 5 54 0;
#X connect 52 5 63 0;
#X connect 52 6 55 0;
#X connect 52 6 64 0;
#X connect 60 0 50 0;
#X connect 61 0 56 0;
#X connect 62 0 51 0;
#X connect 70 0 71 1;
#X connect 71 0 3 0;
#X connect 71 0 3 1;
#X connect 75 0 2 0;
#X connect 76 0 9 0;
#X connect 77 0 78 0;
#X connect 78 0 105 0;
#X connect 79 0 81 0;
#X connect 81 0 83 0;
#X connect 81 1 82 0;
#X connect 82 0 85 0;
#X connect 83 0 85 0;
#X connect 87 0 101 0;
#X connect 88 0 102 0;
#X connect 89 0 103 0;
#X connect 90 0 94 0;
#X connect 90 1 94 1;
#X connect 90 2 92 0;
#X connect 90 3 95 0;
#X connect 90 4 96 0;
#X connect 90 5 97 0;
#X connect 92 0 86 0;
#X connect 93 0 86 0;
#X connect 94 0 93 0;
#X connect 95 0 86 0;
#X connect 96 0 86 0;
#X connect 97 0 86 0;
#X connect 98 0 90 3;
#X connect 99 0 90 4;
#X connect 100 0 90 5;
#X connect 101 0 90 0;
#X connect 102 0 90 1;
#X connect 103 0 90 2;
#X connect 105 0 80 0;
#X connect 105 1 106 0;
#X connect 106 0 108 0;
#X connect 106 1 109 0;
#X connect 106 2 107 0;
