#N canvas 81 152 1604 619 10;
#X obj 1073 41 loadbang;
#X text 1099 64 v-- re-read the original sample;
#X obj 1073 109 soundfiler;
#X obj 1110 447 dac~;
#X obj 46 33 receive fromGUI;
#X msg 48 534 list /receiveSlider \$1;
#X obj 544 73 route list;
#X obj 543 42 receive fromNetwork;
#X obj 47 64 list trim;
#X obj 201 577 send toGUI, f 33;
#X msg 349 536 list /receiveSlider3 \$1;
#X msg 196 535 list /receiveSlider2 \$1;
#X obj 51 164 r volume;
#X obj 46 92 route /on;
#X obj 44 116 s volume;
#X obj 50 203 sel 1 0;
#X msg 79 234 0;
#X obj 561 264 vsl 30 256 0 100 0 0 empty empty empty 0 -9 0 10 -262144
-1 -1 0 1;
#X obj 880 266 vsl 30 256 0 200 0 0 empty empty empty 0 -9 0 10 -262144
-1 -1 0 1;
#X obj 544 108 route /accelx /accely /accelz /temp /pressure /altitude
/humidity;
#X floatatom 685 156 5 0 0 0 - - -, f 5;
#X floatatom 791 158 5 0 0 0 - - -, f 5;
#X floatatom 845 150 5 0 0 0 - - -, f 5;
#X obj 610 265 hsl 256 30 0 100 0 0 empty empty empty -2 -8 0 10 -262144
-1 -1 0 1;
#X obj 514 158 s x;
#X obj 588 154 s y;
#X obj 636 151 s z;
#X obj 562 239 r y;
#X obj 607 237 r x;
#X obj 882 239 r z;
#X obj 764 200 s alt;
#X obj 824 200 s hum;
#X obj 662 198 s temp, f 7;
#X msg 45 234 0.9;
#X text 36 8 Messages received from the phone;
#X text 112 93 For exanple \, /on controls the main volume;
#X obj 49 431 r x;
#X obj 87 430 r y;
#X floatatom 732 154 5 0 0 0 - - -, f 5;
#X obj 128 431 r z;
#N canvas 0 94 614 457 speedControl 0;
#X obj 43 239 inlet;
#X obj 28 270 f;
#X obj 28 293 outlet;
#X obj 27 127 loadbang;
#X obj 115 241 inlet;
#X obj 100 272 f;
#X obj 100 295 outlet;
#X obj 196 243 inlet;
#X obj 181 274 f;
#X obj 181 297 outlet;
#X obj 27 160 metro 100;
#X text 173 22 Updating your phone display can take a bit of time.
As we expect values from the ESP32 every 3 or 4 ms \, we impose here
a slower rate for the values sent to the display. Audio synthesis is
not affected by this subpatch. It runs at full ESP32 rate.;
#X text 134 206 add one of this for each inout you want to control
;
#X connect 0 0 1 1;
#X connect 1 0 2 0;
#X connect 3 0 10 0;
#X connect 4 0 5 1;
#X connect 5 0 6 0;
#X connect 7 0 8 1;
#X connect 8 0 9 0;
#X connect 10 0 1 0;
#X connect 10 0 5 0;
#X connect 10 0 8 0;
#X restore 49 478 pd speedControl;
#X text 51 403 Sending values to the phone app;
#X text 159 478 control the sending rate;
#X text 541 19 values received from the ESP32;
#X obj 45 280 s vol_master;
#X text 1119 529 Enrique Tomas flying-interfaces Workshop https://github.com/ultranoise/flying-interfaces/blob/master/README.md
;
#N canvas 0 50 450 250 (subpatch) 0;
#X array table18 174215 float 2;
#X coords 0 1 174215 -1 200 140 1;
#X restore 1352 19 graph;
#X obj 1110 356 hip~ 5;
#X text 1169 358 high pass filter to cut DC;
#X obj 1110 289 line~;
#X obj 1110 240 * 441;
#X floatatom 1110 186 0 0 100 0 - - -;
#X obj 1110 264 pack 0 100;
#X text 1145 187 <-- read point in 100ths of a second;
#X text 1167 240 convert to SAMPLES (441 samples in 0.01 sec);
#X text 1157 289 convert smoothly to audio signal;
#X text 1157 201 (range is 0-100.) YOU ONLY HEAR OUTPUT;
#X text 1158 217 WHEN THIS IS 0-100 AND ACTIVELY CHANGING.;
#X obj 1109 414 *~;
#X obj 1138 388 r vol_master;
#X obj 1110 324 tabread4~ table18;
#X obj 1076 183 r y;
#X msg 1073 84 read -resize loop1_mono.wav table18;
#X connect 0 0 62 0;
#X connect 4 0 8 0;
#X connect 5 0 9 0;
#X connect 6 0 19 0;
#X connect 7 0 6 0;
#X connect 8 0 13 0;
#X connect 10 0 9 0;
#X connect 11 0 9 0;
#X connect 12 0 15 0;
#X connect 13 0 14 0;
#X connect 15 0 33 0;
#X connect 15 1 16 0;
#X connect 16 0 44 0;
#X connect 19 0 24 0;
#X connect 19 1 25 0;
#X connect 19 2 26 0;
#X connect 19 3 20 0;
#X connect 19 3 32 0;
#X connect 19 4 38 0;
#X connect 19 5 21 0;
#X connect 19 5 30 0;
#X connect 19 6 22 0;
#X connect 19 6 31 0;
#X connect 27 0 17 0;
#X connect 28 0 23 0;
#X connect 29 0 18 0;
#X connect 33 0 44 0;
#X connect 36 0 40 0;
#X connect 37 0 40 1;
#X connect 39 0 40 2;
#X connect 40 0 5 0;
#X connect 40 1 11 0;
#X connect 40 2 10 0;
#X connect 47 0 58 0;
#X connect 49 0 60 0;
#X connect 50 0 52 0;
#X connect 51 0 50 0;
#X connect 52 0 49 0;
#X connect 58 0 3 0;
#X connect 58 0 3 1;
#X connect 59 0 58 1;
#X connect 60 0 47 0;
#X connect 61 0 50 0;
#X connect 62 0 2 0;
