#N canvas 64 374 1706 825 10;
#X obj 544 73 route list;
#X obj 543 42 receive fromNetwork;
#X obj 561 264 vsl 30 256 0 100 0 0 empty empty empty 0 -9 0 10 -262144
-1 -1 0 1;
#X obj 880 266 vsl 30 256 0 200 0 0 empty empty empty 0 -9 0 10 -262144
-1 -1 0 1;
#X obj 544 108 route /accelx /accely /accelz /temp /pressure /altitude
/humidity;
#X floatatom 685 156 5 0 0 0 - - -, f 5;
#X floatatom 791 158 5 0 0 0 - - -, f 5;
#X floatatom 845 150 5 0 0 0 - - -, f 5;
#X obj 610 265 hsl 256 30 0 100 0 0 empty empty empty -2 -8 0 10 -262144
-1 -1 0 1;
#X obj 514 158 s x;
#X obj 588 154 s y;
#X obj 636 151 s z;
#X obj 562 239 r y;
#X obj 607 237 r x;
#X obj 882 239 r z;
#X obj 764 200 s alt;
#X obj 824 200 s hum;
#X obj 662 198 s temp, f 7;
#X obj 1032 61 tgl 15 0 empty empty empty 17 7 0 10 -262144 -1 -1 1
1;
#X obj 1035 109 f;
#X obj 1035 145 mod 16;
#X obj 1035 181 hradio 15 1 0 16 empty empty empty 0 -8 0 10 -262144
-1 -1 12;
#X obj 1037 205 select 0 1 2 3 4 5 6 7 8 9 10 11 12 13 14 15;
#X floatatom 1086 54 5 0 0 0 - - -, f 5;
#X obj 1085 109 + 1;
#X obj 1029 483 f;
#X obj 1042 336 vsl 15 128 0 127 0 1 empty empty empty 0 -9 0 10 -262144
-1 -1 5000 1;
#X obj 1083 474 f;
#X obj 1083 325 vsl 15 128 0 127 0 1 empty empty empty 0 -9 0 10 -262144
-1 -1 5800 1;
#X obj 1120 474 f;
#X obj 1120 325 vsl 15 128 0 127 0 1 empty empty empty 0 -9 0 10 -262144
-1 -1 5200 1;
#X obj 1157 474 f;
#X obj 1157 325 vsl 15 128 0 127 0 1 empty empty empty 0 -9 0 10 -262144
-1 -1 7000 1;
#X obj 1197 474 f;
#X obj 1197 325 vsl 15 128 0 127 0 1 empty empty empty 0 -9 0 10 -262144
-1 -1 5300 1;
#X obj 1234 479 f;
#X obj 1234 325 vsl 15 128 0 127 0 1 empty empty empty 0 -9 0 10 -262144
-1 -1 5000 1;
#X obj 1271 474 f;
#X obj 1271 325 vsl 15 128 0 127 0 1 empty empty empty 0 -9 0 10 -262144
-1 -1 4500 1;
#X obj 1574 482 f;
#X obj 1574 333 vsl 15 128 0 127 0 1 empty empty empty 0 -9 0 10 -262144
-1 -1 3500 1;
#X obj 1317 481 f;
#X obj 1317 332 vsl 15 128 0 127 0 1 empty empty empty 0 -9 0 10 -262144
-1 -1 8694 1;
#X obj 1352 481 f;
#X obj 1352 332 vsl 15 128 0 127 0 1 empty empty empty 0 -9 0 10 -262144
-1 -1 2200 1;
#X obj 1389 481 f;
#X obj 1389 332 vsl 15 128 0 127 0 1 empty empty empty 0 -9 0 10 -262144
-1 -1 3573 1;
#X obj 1428 474 f;
#X obj 1434 338 vsl 15 128 0 127 0 1 empty empty empty 0 -9 0 10 -262144
-1 -1 7600 1;
#X obj 1472 482 f;
#X obj 1472 333 vsl 15 128 0 127 0 1 empty empty empty 0 -9 0 10 -262144
-1 -1 10000 1;
#X obj 1513 482 f;
#X obj 1513 333 vsl 15 128 0 127 0 1 empty empty empty 0 -9 0 10 -262144
-1 -1 5600 1;
#X obj 1539 482 f;
#X obj 1539 333 vsl 15 128 0 127 0 1 empty empty empty 0 -9 0 10 -262144
-1 -1 2900 1;
#X obj 1617 482 f;
#X obj 1617 333 vsl 15 128 0 127 0 1 empty empty empty 0 -9 0 10 -262144
-1 -1 5988 1;
#X obj 1245 542 mtof;
#X obj 1243 583 phasor~;
#X obj 1245 635 bp~ 220 5;
#X obj 1270 610 * 1.5;
#X obj 1243 768 dac~;
#X obj 1001 267 r x;
#X obj 1486 255 r z;
#X obj 1249 99 r y;
#X obj 1608 239 r temp;
#X obj 1609 269 * 2;
#X floatatom 1404 250 5 0 0 0 - - -, f 5;
#X obj 1395 188 r alt;
#X obj 1393 218 / 10;
#X obj 1341 150 r hum;
#X obj 1338 180 * 3;
#X obj 1026 13 loadbang;
#X msg 1028 40 1;
#X obj 1033 78 metro 150;
#X obj 1042 646 phasor~ 55;
#X obj 1042 690 *~;
#X obj 1136 649 *~ 0.3;
#X obj 1135 627 phasor~ 0.5;
#X obj 1137 677 +~ 0.01;
#X floatatom 732 154 5 0 0 0 - - -, f 5;
#X text 541 19 values received from the ESP32;
#X obj 1270 712 r vol_master;
#X obj 1243 740 *~ 0;
#X text 1033 578 A simple second voice to accompany my sequencer;
#X text 1318 50 Sensor values control the frequency of each of the
steps in the sequencer;
#X text 52 698 Enrique Tomas flying-interfaces Workshop https://github.com/ultranoise/flying-interfaces/blob/master/README.md
;
#X obj 46 33 receive fromGUI;
#X obj 47 64 list trim;
#X obj 51 164 r volume;
#X obj 44 116 s volume;
#X obj 50 203 sel 1 0;
#X msg 79 234 0;
#X msg 45 234 0.9;
#X text 36 8 Messages received from the phone;
#X obj 45 280 s vol_master;
#X obj 175 544 send toGUI, f 33;
#X obj 96 378 r x;
#X obj 129 377 r y;
#X obj 170 377 r z;
#N canvas 0 94 614 457 speedControl 0;
#X obj 43 239 inlet;
#X obj 28 270 f;
#X obj 28 293 outlet;
#X obj 27 127 loadbang;
#X obj 115 241 inlet;
#X obj 100 272 f;
#X obj 100 295 outlet;
#X obj 196 243 inlet;
#X obj 181 274 f;
#X obj 181 297 outlet;
#X obj 27 160 metro 100;
#X text 173 22 Updating your phone display can take a bit of time.
As we expect values from the ESP32 every 3 or 4 ms \, we impose here
a slower rate for the values sent to the display. Audio synthesis is
not affected by this subpatch. It runs at full ESP32 rate.;
#X text 134 206 add one of this for each inout you want to control
;
#X obj 247 243 inlet;
#X obj 232 274 f;
#X obj 232 297 outlet;
#X obj 319 245 inlet;
#X obj 304 276 f;
#X obj 304 299 outlet;
#X obj 400 247 inlet;
#X obj 385 278 f;
#X obj 385 301 outlet;
#X connect 0 0 1 1;
#X connect 1 0 2 0;
#X connect 3 0 10 0;
#X connect 4 0 5 1;
#X connect 5 0 6 0;
#X connect 7 0 8 1;
#X connect 8 0 9 0;
#X connect 10 0 1 0;
#X connect 10 0 5 0;
#X connect 10 0 8 0;
#X connect 10 0 14 0;
#X connect 10 0 17 0;
#X connect 10 0 20 0;
#X connect 13 0 14 1;
#X connect 14 0 15 0;
#X connect 16 0 17 1;
#X connect 17 0 18 0;
#X connect 19 0 20 1;
#X connect 20 0 21 0;
#X restore 137 454 pd speedControl;
#X text 246 444 control the sending rate;
#X msg 146 506 list /z \$1;
#X msg 26 512 list /xy \$1 \$2;
#X obj 25 485 pack f f;
#X msg 239 504 list /alt \$1;
#X msg 329 505 list /hum \$1;
#X msg 415 506 list /temp \$1;
#X obj 227 378 r alt;
#X obj 264 390 r hum;
#X obj 305 395 r temp;
#X obj 94 413 / 100;
#X obj 133 414 / 100;
#X obj 175 413 / 100;
#X text 42 318 Sending values to the phone app;
#X obj 46 92 route /on /presets;
#X obj 126 121 unpack f f f;
#X obj 243 154 s p_value;
#X obj 125 154 s p_column;
#X obj 192 154 s p_row;
#X text 187 71 For example \, /on controls the main volume;
#X text 192 90 we also receive the infomation of presets;
#X connect 0 0 4 0;
#X connect 1 0 0 0;
#X connect 4 0 9 0;
#X connect 4 1 10 0;
#X connect 4 2 11 0;
#X connect 4 3 5 0;
#X connect 4 3 17 0;
#X connect 4 4 80 0;
#X connect 4 5 6 0;
#X connect 4 5 15 0;
#X connect 4 6 7 0;
#X connect 4 6 16 0;
#X connect 12 0 2 0;
#X connect 13 0 8 0;
#X connect 14 0 3 0;
#X connect 18 0 74 0;
#X connect 19 0 20 0;
#X connect 19 0 24 0;
#X connect 20 0 21 0;
#X connect 21 0 22 0;
#X connect 22 0 25 0;
#X connect 22 1 27 0;
#X connect 22 2 29 0;
#X connect 22 3 31 0;
#X connect 22 4 33 0;
#X connect 22 5 35 0;
#X connect 22 6 37 0;
#X connect 22 7 41 0;
#X connect 22 8 43 0;
#X connect 22 9 45 0;
#X connect 22 10 47 0;
#X connect 22 11 49 0;
#X connect 22 12 51 0;
#X connect 22 13 53 0;
#X connect 22 14 39 0;
#X connect 22 15 55 0;
#X connect 23 0 74 1;
#X connect 24 0 19 1;
#X connect 25 0 57 0;
#X connect 26 0 25 1;
#X connect 27 0 57 0;
#X connect 28 0 27 1;
#X connect 29 0 57 0;
#X connect 30 0 29 1;
#X connect 31 0 57 0;
#X connect 32 0 31 1;
#X connect 33 0 57 0;
#X connect 34 0 33 1;
#X connect 35 0 57 0;
#X connect 36 0 35 1;
#X connect 37 0 57 0;
#X connect 38 0 37 1;
#X connect 39 0 57 0;
#X connect 40 0 39 1;
#X connect 41 0 57 0;
#X connect 42 0 41 1;
#X connect 43 0 57 0;
#X connect 44 0 43 1;
#X connect 45 0 57 0;
#X connect 46 0 45 1;
#X connect 47 0 57 0;
#X connect 48 0 47 1;
#X connect 49 0 57 0;
#X connect 50 0 49 1;
#X connect 51 0 57 0;
#X connect 52 0 51 1;
#X connect 53 0 57 0;
#X connect 54 0 53 1;
#X connect 55 0 57 0;
#X connect 56 0 55 1;
#X connect 57 0 58 0;
#X connect 57 0 60 0;
#X connect 58 0 59 0;
#X connect 59 0 83 0;
#X connect 60 0 59 1;
#X connect 62 0 26 0;
#X connect 63 0 50 0;
#X connect 64 0 36 0;
#X connect 65 0 66 0;
#X connect 66 0 56 0;
#X connect 67 0 46 0;
#X connect 68 0 69 0;
#X connect 69 0 67 0;
#X connect 70 0 71 0;
#X connect 71 0 42 0;
#X connect 72 0 73 0;
#X connect 73 0 18 0;
#X connect 74 0 19 0;
#X connect 75 0 76 0;
#X connect 76 0 83 0;
#X connect 77 0 79 0;
#X connect 78 0 77 0;
#X connect 79 0 76 1;
#X connect 82 0 83 1;
#X connect 83 0 61 0;
#X connect 83 0 61 1;
#X connect 87 0 88 0;
#X connect 88 0 115 0;
#X connect 89 0 91 0;
#X connect 91 0 93 0;
#X connect 91 1 92 0;
#X connect 92 0 95 0;
#X connect 93 0 95 0;
#X connect 97 0 111 0;
#X connect 98 0 112 0;
#X connect 99 0 113 0;
#X connect 100 0 104 0;
#X connect 100 1 104 1;
#X connect 100 2 102 0;
#X connect 100 3 105 0;
#X connect 100 4 106 0;
#X connect 100 5 107 0;
#X connect 102 0 96 0;
#X connect 103 0 96 0;
#X connect 104 0 103 0;
#X connect 105 0 96 0;
#X connect 106 0 96 0;
#X connect 107 0 96 0;
#X connect 108 0 100 3;
#X connect 109 0 100 4;
#X connect 110 0 100 5;
#X connect 111 0 100 0;
#X connect 112 0 100 1;
#X connect 113 0 100 2;
#X connect 115 0 90 0;
#X connect 115 1 116 0;
#X connect 116 0 118 0;
#X connect 116 1 119 0;
#X connect 116 2 117 0;
