#N canvas 215 326 1703 619 10;
#X obj 544 73 route list;
#X obj 543 42 receive fromNetwork;
#X obj 561 264 vsl 30 256 0 100 0 0 empty empty empty 0 -9 0 10 -262144
-1 -1 12750 1;
#X obj 880 266 vsl 30 256 0 200 0 0 empty empty empty 0 -9 0 10 -262144
-1 -1 12750 1;
#X obj 544 108 route /accelx /accely /accelz /temp /pressure /altitude
/humidity;
#X floatatom 685 156 5 0 0 0 - - -, f 5;
#X floatatom 791 158 5 0 0 0 - - -, f 5;
#X floatatom 845 150 5 0 0 0 - - -, f 5;
#X obj 610 265 hsl 256 30 0 100 0 0 empty empty empty -2 -8 0 10 -262144
-1 -1 12750 1;
#X obj 514 158 s x;
#X obj 588 154 s y;
#X obj 636 151 s z;
#X obj 562 239 r y;
#X obj 607 237 r x;
#X obj 882 239 r z;
#X obj 764 200 s alt;
#X obj 824 200 s hum;
#X obj 662 198 s temp, f 7;
#X floatatom 732 154 5 0 0 0 - - -, f 5;
#X text 541 19 values received from the ESP32;
#X text 1139 553 Enrique Tomas flying-interfaces Workshop https://github.com/ultranoise/flying-interfaces/blob/master/README.md
;
#X obj 46 33 receive fromGUI;
#X obj 47 64 list trim;
#X obj 51 164 r volume;
#X obj 44 116 s volume;
#X obj 50 203 sel 1 0;
#X msg 79 234 0;
#X msg 45 234 0.9;
#X text 36 8 Messages received from the phone;
#X obj 45 280 s vol_master;
#X obj 175 544 send toGUI, f 33;
#X obj 96 378 r x;
#X obj 129 377 r y;
#X obj 170 377 r z;
#N canvas 0 94 614 457 speedControl 0;
#X obj 43 239 inlet;
#X obj 28 270 f;
#X obj 28 293 outlet;
#X obj 27 127 loadbang;
#X obj 115 241 inlet;
#X obj 100 272 f;
#X obj 100 295 outlet;
#X obj 196 243 inlet;
#X obj 181 274 f;
#X obj 181 297 outlet;
#X obj 27 160 metro 100;
#X text 173 22 Updating your phone display can take a bit of time.
As we expect values from the ESP32 every 3 or 4 ms \, we impose here
a slower rate for the values sent to the display. Audio synthesis is
not affected by this subpatch. It runs at full ESP32 rate.;
#X text 134 206 add one of this for each inout you want to control
;
#X obj 247 243 inlet;
#X obj 232 274 f;
#X obj 232 297 outlet;
#X obj 319 245 inlet;
#X obj 304 276 f;
#X obj 304 299 outlet;
#X obj 400 247 inlet;
#X obj 385 278 f;
#X obj 385 301 outlet;
#X connect 0 0 1 1;
#X connect 1 0 2 0;
#X connect 3 0 10 0;
#X connect 4 0 5 1;
#X connect 5 0 6 0;
#X connect 7 0 8 1;
#X connect 8 0 9 0;
#X connect 10 0 1 0;
#X connect 10 0 5 0;
#X connect 10 0 8 0;
#X connect 10 0 14 0;
#X connect 10 0 17 0;
#X connect 10 0 20 0;
#X connect 13 0 14 1;
#X connect 14 0 15 0;
#X connect 16 0 17 1;
#X connect 17 0 18 0;
#X connect 19 0 20 1;
#X connect 20 0 21 0;
#X restore 137 454 pd speedControl;
#X text 246 444 control the sending rate;
#X msg 146 506 list /z \$1;
#X msg 26 512 list /xy \$1 \$2;
#X obj 25 485 pack f f;
#X msg 239 504 list /alt \$1;
#X msg 329 505 list /hum \$1;
#X msg 415 506 list /temp \$1;
#X obj 227 378 r alt;
#X obj 264 390 r hum;
#X obj 305 395 r temp;
#X obj 94 413 / 100;
#X obj 133 414 / 100;
#X obj 175 413 / 100;
#X text 42 318 Sending values to the phone app;
#X obj 46 92 route /on /presets;
#X obj 126 121 unpack f f f;
#X obj 243 154 s p_value;
#X obj 125 154 s p_column;
#X obj 192 154 s p_row;
#X text 187 71 For example \, /on controls the main volume;
#X text 192 90 we also receive the infomation of presets;
#X obj 1020 423 dac~;
#X obj 1003 399 *~;
#X obj 1018 372 r vol_master;
#X msg 1019 201 1;
#X text 1051 204 1 starts playback;
#X obj 1045 396 *~;
#X obj 1012 230 readsf~ 2;
#X obj 1063 253 s end_file1;
#X msg 979 136 open loop1_mono.wav;
#X obj 979 108 loadbang;
#X obj 1040 108 r end_file1;
#X obj 1039 173 del 100;
#X obj 583 545 s yy;
#X obj 680 406 hsl 128 15 0 1 0 0 empty vol1 empty -2 -8 0 10 -262144
-1 -1 0 1;
#X obj 680 429 hsl 128 15 0 1 0 0 empty vol2 empty -2 -8 0 10 -262144
-1 -1 0 1;
#X obj 680 471 hsl 128 15 0 1 0 0 empty vol4 empty -2 -8 0 10 -262144
-1 -1 12700 1;
#X obj 680 451 hsl 128 15 0 1 0 0 empty vol3 empty -2 -8 0 10 -262144
-1 -1 0 1;
#X obj 611 319 s xx;
#X obj 1013 311 line~;
#X msg 1013 290 \$1 20;
#X obj 981 338 *~;
#X obj 1073 342 *~;
#X obj 1013 269 r vol1;
#N canvas 0 94 491 300 map_volumes 0;
#X obj 39 86 moses 50;
#X obj 39 119 * 2;
#X obj 39 153 / 100;
#X floatatom 39 188 5 0 0 0 - - -, f 5;
#X obj 39 220 s vol1;
#X obj 85 220 s vol2;
#X msg 86 158 bang;
#X msg 86 182 0;
#X obj 134 130 * 2;
#X obj 134 154 / 100;
#X floatatom 134 189 5 0 0 0 - - -, f 5;
#X msg 181 159 bang;
#X msg 181 183 0;
#X obj 133 108 - 50;
#X obj 134 221 s vol2;
#X obj 180 221 s vol1;
#X obj 236 80 moses 50;
#X obj 236 113 * 2;
#X obj 236 147 / 100;
#X floatatom 236 182 5 0 0 0 - - -, f 5;
#X obj 283 214 s vol4;
#X msg 283 152 bang;
#X msg 283 176 0;
#X obj 331 124 * 2;
#X obj 331 148 / 100;
#X floatatom 331 183 5 0 0 0 - - -, f 5;
#X obj 378 216 s vol3;
#X msg 378 153 bang;
#X msg 378 177 0;
#X obj 330 102 - 50;
#X obj 236 214 s vol3;
#X obj 331 215 s vol4;
#X obj 39 57 r y;
#X obj 236 51 r z;
#X connect 0 0 1 0;
#X connect 0 0 6 0;
#X connect 0 1 13 0;
#X connect 0 1 11 0;
#X connect 1 0 2 0;
#X connect 2 0 3 0;
#X connect 3 0 4 0;
#X connect 6 0 7 0;
#X connect 7 0 5 0;
#X connect 8 0 9 0;
#X connect 9 0 10 0;
#X connect 10 0 14 0;
#X connect 11 0 12 0;
#X connect 12 0 15 0;
#X connect 13 0 8 0;
#X connect 16 0 17 0;
#X connect 16 0 21 0;
#X connect 16 1 29 0;
#X connect 16 1 27 0;
#X connect 17 0 18 0;
#X connect 18 0 19 0;
#X connect 19 0 30 0;
#X connect 21 0 22 0;
#X connect 22 0 20 0;
#X connect 23 0 24 0;
#X connect 24 0 25 0;
#X connect 25 0 31 0;
#X connect 27 0 28 0;
#X connect 28 0 26 0;
#X connect 29 0 23 0;
#X connect 32 0 0 0;
#X connect 33 0 16 0;
#X restore 676 372 pd map_volumes;
#X msg 1186 196 1;
#X text 1218 199 1 starts playback;
#X obj 1179 225 readsf~ 2;
#X obj 1146 103 loadbang;
#X obj 1206 168 del 100;
#X obj 1180 306 line~;
#X msg 1180 285 \$1 20;
#X obj 1148 333 *~;
#X obj 1257 339 *~;
#X obj 1230 248 s end_file2;
#X obj 1180 264 r vol2;
#X obj 1207 103 r end_file2;
#X msg 1363 200 1;
#X text 1395 203 1 starts playback;
#X obj 1356 229 readsf~ 2;
#X obj 1323 107 loadbang;
#X obj 1383 172 del 100;
#X obj 1357 310 line~;
#X msg 1357 289 \$1 20;
#X obj 1325 337 *~;
#X obj 1434 343 *~;
#X msg 1323 135 open voice.wav;
#X msg 1146 131 open anderson1.wav;
#X obj 1384 107 r end_file3;
#X obj 1407 252 s end_file3;
#X obj 1357 268 r vol3;
#X msg 1542 201 1;
#X text 1574 204 1 starts playback;
#X obj 1535 230 readsf~ 2;
#X obj 1502 108 loadbang;
#X obj 1562 173 del 100;
#X obj 1536 311 line~;
#X msg 1536 290 \$1 20;
#X obj 1504 338 *~;
#X obj 1613 344 *~;
#X obj 1563 108 r end_file4;
#X obj 1586 253 s end_file4;
#X obj 1536 269 r vol4;
#X obj 1181 422 dac~;
#X obj 1164 398 *~;
#X obj 1179 371 r vol_master;
#X obj 1206 395 *~;
#X obj 1356 425 dac~;
#X obj 1339 401 *~;
#X obj 1354 374 r vol_master;
#X obj 1381 398 *~;
#X obj 1532 424 dac~;
#X obj 1515 400 *~;
#X obj 1530 373 r vol_master;
#X obj 1557 397 *~;
#X msg 1502 136 open bell.aiff;
#X connect 0 0 4 0;
#X connect 1 0 0 0;
#X connect 2 0 68 0;
#X connect 4 0 9 0;
#X connect 4 1 10 0;
#X connect 4 2 11 0;
#X connect 4 3 5 0;
#X connect 4 3 17 0;
#X connect 4 4 18 0;
#X connect 4 5 6 0;
#X connect 4 5 15 0;
#X connect 4 6 7 0;
#X connect 4 6 16 0;
#X connect 8 0 73 0;
#X connect 12 0 2 0;
#X connect 13 0 8 0;
#X connect 14 0 3 0;
#X connect 21 0 22 0;
#X connect 22 0 49 0;
#X connect 23 0 25 0;
#X connect 25 0 27 0;
#X connect 25 1 26 0;
#X connect 26 0 29 0;
#X connect 27 0 29 0;
#X connect 31 0 45 0;
#X connect 32 0 46 0;
#X connect 33 0 47 0;
#X connect 34 0 38 0;
#X connect 34 1 38 1;
#X connect 34 2 36 0;
#X connect 34 3 39 0;
#X connect 34 4 40 0;
#X connect 34 5 41 0;
#X connect 36 0 30 0;
#X connect 37 0 30 0;
#X connect 38 0 37 0;
#X connect 39 0 30 0;
#X connect 40 0 30 0;
#X connect 41 0 30 0;
#X connect 42 0 34 3;
#X connect 43 0 34 4;
#X connect 44 0 34 5;
#X connect 45 0 34 0;
#X connect 46 0 34 1;
#X connect 47 0 34 2;
#X connect 49 0 24 0;
#X connect 49 1 50 0;
#X connect 50 0 52 0;
#X connect 50 1 53 0;
#X connect 50 2 51 0;
#X connect 57 0 56 0;
#X connect 58 0 57 1;
#X connect 58 0 61 1;
#X connect 59 0 62 0;
#X connect 61 0 56 1;
#X connect 62 0 76 0;
#X connect 62 1 77 0;
#X connect 62 2 63 0;
#X connect 64 0 62 0;
#X connect 65 0 64 0;
#X connect 65 0 67 0;
#X connect 66 0 64 0;
#X connect 66 0 67 0;
#X connect 67 0 59 0;
#X connect 74 0 76 1;
#X connect 74 0 77 1;
#X connect 75 0 74 0;
#X connect 76 0 57 0;
#X connect 77 0 61 0;
#X connect 78 0 75 0;
#X connect 80 0 82 0;
#X connect 82 0 87 0;
#X connect 82 1 88 0;
#X connect 82 2 89 0;
#X connect 83 0 102 0;
#X connect 83 0 84 0;
#X connect 84 0 80 0;
#X connect 85 0 87 1;
#X connect 85 0 88 1;
#X connect 86 0 85 0;
#X connect 87 0 119 0;
#X connect 88 0 121 0;
#X connect 90 0 86 0;
#X connect 91 0 102 0;
#X connect 91 0 84 0;
#X connect 92 0 94 0;
#X connect 94 0 99 0;
#X connect 94 1 100 0;
#X connect 94 2 104 0;
#X connect 95 0 101 0;
#X connect 95 0 96 0;
#X connect 96 0 92 0;
#X connect 97 0 99 1;
#X connect 97 0 100 1;
#X connect 98 0 97 0;
#X connect 99 0 123 0;
#X connect 100 0 125 0;
#X connect 101 0 94 0;
#X connect 102 0 82 0;
#X connect 103 0 101 0;
#X connect 103 0 96 0;
#X connect 105 0 98 0;
#X connect 106 0 108 0;
#X connect 108 0 113 0;
#X connect 108 1 114 0;
#X connect 108 2 116 0;
#X connect 109 0 130 0;
#X connect 109 0 110 0;
#X connect 110 0 106 0;
#X connect 111 0 113 1;
#X connect 111 0 114 1;
#X connect 112 0 111 0;
#X connect 113 0 127 0;
#X connect 114 0 129 0;
#X connect 115 0 130 0;
#X connect 115 0 110 0;
#X connect 117 0 112 0;
#X connect 119 0 118 0;
#X connect 120 0 119 1;
#X connect 120 0 121 1;
#X connect 121 0 118 1;
#X connect 123 0 122 0;
#X connect 124 0 123 1;
#X connect 124 0 125 1;
#X connect 125 0 122 1;
#X connect 127 0 126 0;
#X connect 128 0 127 1;
#X connect 128 0 129 1;
#X connect 129 0 126 1;
#X connect 130 0 108 0;
